<?xml version="1.0" encoding="UTF-8"?><svg id="Camada_2" xmlns="http://www.w3.org/2000/svg" viewBox="0 0 558.17 153.01"><defs><style>.cls-1{fill:none;}.cls-1,.cls-2{stroke:#000;}.cls-1,.cls-2,.cls-3{stroke-miterlimit:10;}.cls-4{stroke-width:0px;}.cls-3{stroke:#fff;}</style></defs><circle class="cls-2" cx="286.74" cy="33.66" r="6.01"/><path class="cls-4" d="m557.1,62.69c.46,3.89,1.1,11.72-.19,18.56-1.35,7.1-6.64,12.98-13.73,14.49-2.91.63-6.35.6-10.17-.79-5.32-1.94-9.32-6.44-10.89-11.88-1.46-5.03-.23-21.6.01-22.83.75-3.89,4.07-14.46,17.04-13.67,0,0,11.49-1.69,16.41,10.1.8,1.92,1.26,3.96,1.51,6.02h.01Zm-5.42,7.79c.19-4.33-.04-20.14-12.56-18.62,0,0-12.87-.75-11.65,20.51.09,1.52-.03,6.53.26,8.02,1,5.38,1.71,10.83,12.72,10.46,9.38-.32,11.29-7.26,11.2-17.74,0-.87,0-1.75.03-2.62h0Z"/><path class="cls-3" d="m508.9,24.64v70.33h-3.47c-1.74,0-3.49.04-5.22.22-6.12.63-10.83.06-14.43-1.13-6.99-2.31-11.55-9.06-11.55-16.42v-14.9c.49-22.46,27.84-16.11,27.84-16.11v-21.97h6.83v-.02Zm-6.83,63.96v-36.13c-21.97-6.34-22.46,13.18-22.46,13.18v13.68c3.9,16.11,22.46,9.27,22.46,9.27Z"/><path class="cls-2" d="m426.4,46.61c.02-.32,5.37-1.25,5.93-1.36,4.73-.88,9.6-1.38,14.38-.72,9.69,1.09,15.8,8.45,14.84,18.19v32.24h-6.34v-27.35c0-25.4-21.97-14.17-21.97-14.17v41.52h-6.84c0-16.12.01-32.23,0-48.35Z"/><path class="cls-4" d="m413.69,46.57v44.97c-7.16,3.26-10.84,3.69-12.51,3.63-1.22-.06-2.44-.11-3.66-.1-15.06.1-17.04-8.91-17.04-8.91v-39.54h6.84l.98,40.03c7.82,7.82,18.55.49,18.55.49v-40.56h6.84Z"/><path class="cls-4" d="m365.38,60.77v34.19h-5.88v-28.33c1.15-22.39-19.05-11.72-19.05-11.72v40.05h-8.3v-30.29c.67-19.44-19.05-10.18-19.05-10.18v40.48h-7.32v-44.32s19.52-8.43,29.6-.37c1.43,1.15.77.85,1.26.53,4.88-2.97,26.99-11.03,28.73,9.97h0Z"/><rect class="cls-4" x="279.9" y="46.61" width="13.68" height="48.35"/><path class="cls-4" d="m252.07,46.61c18.07-.98,16.11,17.08,16.11,17.08v31.27h-12.69v-24.18c-.49-23.18-14.16-15.38-14.16-15.38v39.56h-13.18v-48.35s23.92,0,23.92,0Z"/><path class="cls-2" d="m216.43,46.61v44.44c-8.79,4.39-20.51,3.9-20.51,3.9-20.02,0-18.56-15.62-18.56-15.62v-32.72h12.71l-.49,31.74c0,13.67,15.13,6.83,15.13,6.83l-.49-38.57h12.21,0Z"/><path class="cls-1" d="m177.36,46.61v32.72s-1.46,15.62,18.56,15.62c0,0,11.72.49,20.51-3.9v-44.44h-12.21l.49,38.57s-15.13,6.84-15.13-6.83l.49-31.74h-12.71,0Z"/><path class="cls-1" d="m228.15,46.61v48.35h13.18v-39.56s13.67-7.8,14.16,15.38v24.18h12.69v-31.27s1.97-18.06-16.11-17.08h-23.92,0Z"/><rect class="cls-1" x="279.9" y="46.61" width="13.68" height="48.35"/><path class="cls-2" d="m365.38,60.77v34.19h-5.88v-28.33c1.15-22.39-19.05-11.72-19.05-11.72v40.05h-8.3v-30.29c.67-19.44-19.05-10.18-19.05-10.18v40.48h-7.32v-44.32s19.52-8.43,29.6-.37c1.43,1.15.77.85,1.26.53,4.88-2.97,26.99-11.03,28.73,9.97h0Z"/><path class="cls-2" d="m380.49,46.61v39.54s1.98,9.01,17.04,8.91c1.22-.01,2.44.04,3.66.1,1.66.06,5.35-.37,12.51-3.63v-44.97h-6.84v40.56s-10.73,7.33-18.55-.49l-.98-40.03h-6.84Z"/><path class="cls-1" d="m502.08,46.61s-27.35-6.35-27.84,16.11v14.9c0,7.36,4.56,14.11,11.55,16.42,3.6,1.19,8.3,1.76,14.43,1.13,1.74-.17,3.49-.22,5.22-.22h3.47V24.64h-6.83v21.97h0Z"/><path class="cls-1" d="m502.08,52.46v36.13s-18.56,6.84-22.46-9.27v-13.68s.49-19.52,22.46-13.18Z"/><path class="cls-1" d="m522.14,60.24c.75-3.89,4.07-14.46,17.04-13.67,0,0,11.49-1.69,16.41,10.1.8,1.92,1.26,3.96,1.51,6.02.46,3.89,1.1,11.72-.19,18.56-1.35,7.1-6.64,12.98-13.73,14.49-2.91.63-6.35.6-10.17-.79-5.32-1.94-9.32-6.44-10.89-11.88-1.46-5.03-.23-21.6.01-22.83h.01Z"/><path class="cls-1" d="m539.11,51.86s-12.87-.75-11.65,20.51c.09,1.52-.03,6.53.26,8.02,1,5.38,1.71,10.83,12.72,10.46,9.38-.32,11.29-7.26,11.2-17.74,0-.87,0-1.75.03-2.62.19-4.33-.04-20.14-12.56-18.62h0Z"/><path class="cls-4" d="m212.82,111.17v18.13h-2.34v-18.13s2.34,0,2.34,0Z"/><path class="cls-4" d="m229.83,129.3v-18.13h2.56l5.81,9.17c1.34,2.12,2.39,4.04,3.25,5.89l.05-.03c-.21-2.42-.27-4.63-.27-7.45v-7.59h2.21v18.13h-2.37l-5.76-9.2c-1.26-2.02-2.47-4.09-3.39-6.05l-.08.03c.13,2.29.19,4.47.19,7.48v7.75h-2.21.01Z"/><path class="cls-4" d="m263.89,113.16h-5.52v-1.99h13.42v1.99h-5.54v16.14h-2.37v-16.14h0Z"/><path class="cls-4" d="m296.12,120.8h-7.05v6.54h7.86v1.96h-10.2v-18.13h9.79v1.96h-7.45v5.73h7.05v1.94h0Z"/><path class="cls-4" d="m312.89,111.41c1.18-.24,2.88-.38,4.49-.38,2.5,0,4.12.46,5.25,1.48.91.81,1.43,2.04,1.43,3.44,0,2.39-1.51,3.98-3.42,4.63v.08c1.4.48,2.23,1.78,2.66,3.66.59,2.53,1.02,4.28,1.4,4.98h-2.42c-.3-.51-.7-2.07-1.21-4.33-.54-2.5-1.51-3.44-3.63-3.52h-2.21v7.85h-2.34v-17.89h0Zm2.34,8.26h2.39c2.5,0,4.09-1.37,4.09-3.44,0-2.34-1.7-3.36-4.17-3.39-1.13,0-1.94.11-2.31.21v6.62Z"/><path class="cls-4" d="m353.03,128.71c-.86.43-2.58.86-4.79.86-5.11,0-8.96-3.23-8.96-9.17s3.85-9.52,9.47-9.52c2.26,0,3.69.48,4.3.81l-.57,1.91c-.89-.43-2.15-.75-3.66-.75-4.25,0-7.08,2.72-7.08,7.48,0,4.44,2.56,7.29,6.97,7.29,1.43,0,2.88-.3,3.82-.75l.48,1.86.02-.02Z"/><path class="cls-4" d="m371.92,123.6l-1.88,5.7h-2.42l6.16-18.13h2.82l6.19,18.13h-2.5l-1.94-5.7h-6.43Zm4.25-16.46l2.82,3.07h-1.99l-1.7-1.86h-.05l-1.72,1.86h-1.91l2.74-3.07h1.81Zm1.69,14.63l-1.78-5.22c-.4-1.18-.67-2.26-.94-3.31h-.05c-.27,1.08-.57,2.18-.92,3.28l-1.78,5.25h5.47Z"/><path class="cls-4" d="m413.54,121.34c-.13-2.53-.3-5.57-.27-7.83h-.08c-.62,2.12-1.37,4.38-2.29,6.89l-3.2,8.8h-1.78l-2.93-8.64c-.86-2.56-1.59-4.9-2.1-7.05h-.05c-.05,2.26-.19,5.3-.35,8.02l-.48,7.77h-2.23l1.26-18.13h2.99l3.09,8.77c.75,2.23,1.37,4.22,1.83,6.11h.08c.46-1.83,1.1-3.82,1.91-6.11l3.23-8.77h2.99l1.13,18.13h-2.29l-.46-7.96h0Z"/><path class="cls-4" d="m432.81,111.41c1.02-.22,2.64-.38,4.28-.38,2.34,0,3.85.4,4.98,1.32.94.7,1.51,1.78,1.51,3.2,0,1.75-1.16,3.28-3.07,3.98v.05c1.72.43,3.74,1.86,3.74,4.55,0,1.56-.62,2.74-1.53,3.63-1.26,1.16-3.31,1.69-6.27,1.69-1.61,0-2.85-.11-3.63-.22v-17.84.02Zm2.34,7.42h2.12c2.48,0,3.93-1.29,3.93-3.04,0-2.12-1.61-2.96-3.98-2.96-1.08,0-1.69.08-2.07.16v5.84h0Zm0,8.69c.46.08,1.13.11,1.96.11,2.42,0,4.65-.89,4.65-3.52,0-2.48-2.13-3.5-4.68-3.5h-1.94v6.91h.01Z"/><path class="cls-4" d="m462.65,111.17v18.13h-2.34v-18.13s2.34,0,2.34,0Z"/><path class="cls-4" d="m495.15,120.05c0,6.24-3.79,9.55-8.42,9.55s-8.15-3.71-8.15-9.2c0-5.76,3.58-9.52,8.42-9.52s8.15,3.79,8.15,9.17Zm-14.07.3c0,3.87,2.1,7.34,5.78,7.34s5.81-3.42,5.81-7.53c0-3.6-1.88-7.37-5.78-7.37s-5.81,3.58-5.81,7.56Z"/><path class="cls-4" d="m510.79,126.45c1.05.65,2.58,1.18,4.2,1.18,2.39,0,3.79-1.26,3.79-3.09,0-1.69-.97-2.66-3.42-3.6-2.96-1.05-4.79-2.58-4.79-5.14,0-2.82,2.34-4.92,5.86-4.92,1.86,0,3.2.43,4.01.89l-.65,1.91c-.59-.32-1.8-.86-3.44-.86-2.47,0-3.42,1.48-3.42,2.72,0,1.69,1.1,2.53,3.6,3.5,3.07,1.18,4.63,2.66,4.63,5.33s-2.07,5.22-6.35,5.22c-1.75,0-3.66-.51-4.63-1.16l.59-1.96.02-.02Z"/><path class="cls-4" d="m98.47,140.29h45.54v-41.03s-36.1,4.51-45.54,41.03Z"/><path class="cls-4" d="m92.32,140.29s3.28-39.38,51.69-46.77v-57.02s1.23-9.03-7.38-15.59c0,0-9.84-12.39-8.21-20.92,0,0-11.62,7.85-3.26,21.08,3.52,5.57,5.68,11.9,6.02,18.48.46,8.63.35,19.72-2.36,26.48h0s-11.08-13.12-15.59-30.76c0,0-4.93-19.28-20.92-19.69,0,0,11.08,6.15,9.44,24.62,0,0,2.46,16,9.44,23.38,0,0,7.8,13.54,4.51,16.82,0,0-17.49-28.91-29.49-33.13-2.83-1-5.42-2.55-7.63-4.59-2.72-2.53-6-6.18-8.5-10.83-1.38-2.58-2.86-5.1-4.59-7.45-1.08-1.46-2.11-3.21-2.3-4.71-.41-3.28-5.86,21.33,11.63,36.51,0,0,12.16,11.48,20.77,32.82,0,0-8.21,2.05-18.87-14.77,0,0-4.03-7.68-29.7-11.65-3.61-.55-7.06-1.81-10.15-3.74-3.5-2.18-7.95-5.33-11.01-8.82,0,0,1.64,21.74,24.2,25.02,0,0,16,4.1,19.28,17.23,0,0,4.1,10.67,11.08,11.9,0,0-9.84,4.1-26.25-13.12,0,0-17.23-11.48-44.71,1.64,0,0,22.98-2.06,35.28,8.41,0,0,14.35,17.03,23.79,21.12,0,0-34.8-8.52-46.02-3.38-1.77.81-3.61,1.45-5.44,2.08-4.33,1.48-11.47,4.46-17.05,9.51,0,0,24.62-5.33,39.79,3.69l15.18,6.15h37.35Z"/><polygon class="cls-4" points=".02 145.63 144.06 145.63 148.92 148.5 6.99 153.01 .02 145.63"/><path class="cls-4" d="m.02,130.45s17.3-8.09,54.97,9.84h37.33s4.94-39.92,51.69-46.77c0,0-41.6-2.9-55.08,43.13l-32.76.2S16.66,121.74.02,130.44H.02Z"/><path class="cls-4" d="m9.45,92.71s27.75-3.25,40.23,13.92c0,0,12.12,12.1,17.28,14.84,0,0-8.32-7.21-17.86-19.24,0,0-11.09-14.7-39.66-9.53Z"/><path class="cls-4" d="m80.42,104.19s-6.65.59-11.92-14.48c0,0-2.58-10.34-20.83-15.09,0,0-19.13-2.12-21.8-24.58,0,0,5.42,17.76,22.21,22.12,0,0,19.67,3.21,23.94,19.44,0,0,.94,8.12,8.41,12.59Z"/><path class="cls-4" d="m62.83,19.75s-5.28,13.3,4.94,29.08c1.91,2.95,4.86,5.18,7.98,8.3,0,0,14.49,16.58,19.84,31.88,0,0-3.16-16.62-20.15-34.66,0,0-4.25-2.61-8.47-9.87-3.92-6.74-5.51-14.94-4.14-24.73h0Z"/><path class="cls-4" d="m128.42,0s-12.8,7.39-1.05,25.06c0,0,8.18,18.91,1.46,40.99,0,0,8.12-16.69,1.6-39.47-.36-1.24-.91-2.41-1.63-3.48-2.58-3.85-8.75-14.98-.38-23.09h0Z"/><path class="cls-4" d="m92.32,15.59s9.13,4.59,9.49,21.14c.09,4.28-.47,6.13.81,10.2,1.54,4.9,3.6,11.06,9.89,19.11,0,0,5.08,9.94,3.2,14.35,0,0,4.96-5.12-5.62-22.13,0,0-7.11-10.28-6.36-19.91,0,0,.28-21.43-11.4-22.77Z"/><path class="cls-4" d="m.02,130.45s19.16-6.64,54.97,9.84c0,0-35.84-20-54.97-9.84Z"/><path class="cls-4" d="m98.47,140.29h45.54s-14.84-5.33-45.54,0Z"/><polygon class="cls-4" points="6.99 153.01 148.92 148.5 3.51 149.32 6.99 153.01"/></svg>